<mxfile host="app.diagrams.net" modified="2021-07-10T01:17:23.446Z" agent="5.0 (Windows NT 10.0; WOW64) AppleWebKit/537.36 (KHTML, like Gecko) Chrome/83.0.4103.61 Safari/537.36" etag="3_VJg7q5-3Qep9TWUN7a" version="14.8.5" type="github">
  <diagram id="pyyLU4ealHvdAnWu1ua9" name="Page-1">
    <mxGraphModel dx="1209" dy="663" grid="1" gridSize="10" guides="1" tooltips="1" connect="1" arrows="1" fold="1" page="1" pageScale="1" pageWidth="827" pageHeight="1169" math="0" shadow="0">
      <root>
        <mxCell id="0" />
        <mxCell id="1" parent="0" />
      </root>
    </mxGraphModel>
  </diagram>
</mxfile>
